<svg width="1058" height="4348" viewBox="0 0 1058 4348" fill="none" xmlns="http://www.w3.org/2000/svg">
<line y1="2.5" x2="1057" y2="2.5" stroke="#fff" stroke-opacity="0.01"/>
<line y1="126.5" x2="1057" y2="126.5" stroke="#fff" stroke-opacity="0.01"/>
<line y1="250.5" x2="1057" y2="250.5" stroke="#fff" stroke-opacity="0.01"/>
<line y1="374.5" x2="1057" y2="374.5" stroke="#fff" stroke-opacity="0.01"/>
<line y1="498.5" x2="1057" y2="498.5" stroke="#fff" stroke-opacity="0.01"/>
<line y1="622.5" x2="1057" y2="622.5" stroke="#fff" stroke-opacity="0.01"/>
<line y1="746.5" x2="1057" y2="746.5" stroke="#fff" stroke-opacity="0.01"/>
<line y1="870.5" x2="1057" y2="870.5" stroke="#fff" stroke-opacity="0.01"/>
<line y1="994.5" x2="1057" y2="994.5" stroke="#fff" stroke-opacity="0.01"/>
<line y1="1118.5" x2="1057" y2="1118.5" stroke="#fff" stroke-opacity="0.01"/>
<line y1="1242.5" x2="1057" y2="1242.5" stroke="#fff" stroke-opacity="0.01"/>
<line y1="1366.5" x2="1057" y2="1366.5" stroke="#fff" stroke-opacity="0.01"/>
<line y1="1490.5" x2="1057" y2="1490.5" stroke="#fff" stroke-opacity="0.01"/>
<line y1="1614.5" x2="1057" y2="1614.5" stroke="#fff" stroke-opacity="0.01"/>
<line y1="1738.5" x2="1057" y2="1738.5" stroke="#fff" stroke-opacity="0.01"/>
<line y1="1862.5" x2="1057" y2="1862.5" stroke="#fff" stroke-opacity="0.01"/>
<line y1="1986.5" x2="1057" y2="1986.5" stroke="#fff" stroke-opacity="0.01"/>
<line y1="2110.5" x2="1057" y2="2110.5" stroke="#fff" stroke-opacity="0.01"/>
<line y1="2234.5" x2="1057" y2="2234.5" stroke="#fff" stroke-opacity="0.01"/>
<line y1="2358.5" x2="1057" y2="2358.5" stroke="#fff" stroke-opacity="0.01"/>
<line y1="2482.5" x2="1057" y2="2482.5" stroke="#fff" stroke-opacity="0.01"/>
<line y1="2606.5" x2="1057" y2="2606.5" stroke="#fff" stroke-opacity="0.01"/>
<line y1="2730.5" x2="1057" y2="2730.5" stroke="#fff" stroke-opacity="0.01"/>
<line y1="2854.5" x2="1057" y2="2854.5" stroke="#fff" stroke-opacity="0.01"/>
<line y1="2978.5" x2="1057" y2="2978.5" stroke="#fff" stroke-opacity="0.01"/>
<line y1="3102.5" x2="1057" y2="3102.5" stroke="#fff" stroke-opacity="0.01"/>
<line y1="3226.5" x2="1057" y2="3226.5" stroke="#fff" stroke-opacity="0.01"/>
<line y1="3350.5" x2="1057" y2="3350.5" stroke="#fff" stroke-opacity="0.01"/>
<line y1="3474.5" x2="1057" y2="3474.5" stroke="#fff" stroke-opacity="0.01"/>
<line y1="3598.5" x2="1057" y2="3598.5" stroke="#fff" stroke-opacity="0.01"/>
<line y1="3722.5" x2="1057" y2="3722.5" stroke="#fff" stroke-opacity="0.01"/>
<line y1="3846.5" x2="1057" y2="3846.5" stroke="#fff" stroke-opacity="0.01"/>
<line y1="3970.5" x2="1057" y2="3970.5" stroke="#fff" stroke-opacity="0.01"/>
<line y1="4094.5" x2="1057" y2="4094.5" stroke="#fff" stroke-opacity="0.01"/>
<line y1="4218.5" x2="1057" y2="4218.5" stroke="#fff" stroke-opacity="0.01"/>
<line y1="4342.5" x2="1057" y2="4342.5" stroke="#fff" stroke-opacity="0.01"/>
<line x1="0.5" y1="2.18557e-08" x2="0.49981" y2="4348" stroke="#fff" stroke-opacity="0.01"/>
<line x1="151.5" y1="2.18557e-08" x2="151.5" y2="4348" stroke="#fff" stroke-opacity="0.01"/>
<line x1="302.5" y1="2.18557e-08" x2="302.5" y2="4348" stroke="#fff" stroke-opacity="0.01"/>
<line x1="453.5" y1="2.18557e-08" x2="453.5" y2="4348" stroke="#fff" stroke-opacity="0.01"/>
<line x1="604.5" y1="2.18557e-08" x2="604.5" y2="4348" stroke="#fff" stroke-opacity="0.01"/>
<line x1="755.5" y1="2.18557e-08" x2="755.5" y2="4348" stroke="#fff" stroke-opacity="0.01"/>
<line x1="906.5" y1="2.18557e-08" x2="906.5" y2="4348" stroke="#fff" stroke-opacity="0.01"/>
<line x1="1057.5" y1="2.18557e-08" x2="1057.5" y2="4348" stroke="#fff" stroke-opacity="0.01"/>
</svg>
