<?xml version="1.0" standalone="no"?>
<!DOCTYPE svg PUBLIC "-//W3C//DTD SVG 20010904//EN"
 "http://www.w3.org/TR/2001/REC-SVG-20010904/DTD/svg10.dtd">
<svg version="1.0" xmlns="http://www.w3.org/2000/svg"
 width="690.000000pt" height="690.000000pt" viewBox="0 0 690.000000 690.000000"
 preserveAspectRatio="xMidYMid meet">
<metadata>
Created by potrace 1.14, written by Peter Selinger 2001-2017
</metadata>
<g transform="translate(0.000000,690.000000) scale(0.100000,-0.100000)"
fill="#000000" stroke="none">
<path d="M3175 5472 c3 -3 -3 -14 -12 -25 -10 -10 -18 -22 -18 -26 0 -3 -3 -5
-7 -4 -4 2 -5 -4 -2 -12 4 -8 1 -15 -5 -15 -6 0 -11 -5 -11 -10 0 -6 -11 -28
-25 -50 -14 -22 -22 -40 -18 -40 5 0 4 -4 -2 -8 -17 -12 -58 -75 -44 -67 8 5
6 0 -3 -12 -10 -11 -18 -25 -18 -31 0 -7 -4 -12 -8 -12 -7 0 -47 -73 -51 -92
0 -5 -10 -17 -21 -28 -11 -11 -20 -27 -20 -36 0 -9 -5 -12 -12 -8 -7 4 -10 4
-6 -1 7 -7 -42 -105 -69 -136 -7 -9 -10 -19 -6 -22 3 -4 1 -7 -5 -7 -7 0 -12
-7 -12 -15 0 -8 -5 -15 -11 -15 -5 0 -7 -5 -4 -10 3 -6 -1 -13 -9 -16 -9 -3
-14 -9 -12 -13 3 -4 -11 -31 -29 -60 -19 -30 -32 -57 -30 -61 3 -5 -2 -11 -11
-14 -8 -3 -12 -10 -9 -16 3 -5 2 -10 -3 -10 -11 0 -72 -118 -72 -140 0 -10 7
-23 15 -30 9 -7 13 -15 11 -17 -3 -3 4 -14 14 -26 11 -11 17 -24 14 -29 -3 -4
0 -8 6 -8 6 0 8 -4 5 -10 -3 -5 -2 -10 2 -10 5 0 20 -21 33 -47 14 -27 28 -50
33 -51 4 -2 5 -8 1 -13 -3 -5 -1 -9 3 -9 5 0 17 -17 27 -37 10 -21 25 -49 33
-63 8 -14 17 -33 20 -42 3 -10 10 -18 15 -18 5 0 6 -4 3 -10 -3 -5 -2 -10 3
-10 4 0 19 -21 32 -47 12 -27 30 -56 38 -65 8 -10 11 -18 6 -18 -5 0 -4 -4 1
-8 21 -15 50 -56 35 -48 -8 4 -6 0 4 -8 11 -9 16 -16 11 -16 -4 0 0 -9 10 -20
10 -11 15 -20 11 -20 -4 0 -1 -7 6 -15 23 -26 34 -40 36 -47 9 -28 17 -44 26
-50 6 -4 12 -11 12 -15 5 -26 18 -53 25 -53 5 0 9 -8 9 -18 0 -10 9 -24 19
-32 11 -7 17 -18 14 -23 -3 -5 -1 -12 4 -16 9 -5 34 -47 86 -143 12 -21 25
-38 29 -38 5 0 7 -4 3 -9 -3 -5 2 -16 10 -24 8 -9 15 -23 15 -31 0 -9 4 -16 8
-16 5 0 17 -18 28 -40 10 -22 23 -40 27 -40 5 0 5 -4 2 -10 -3 -5 -1 -10 4
-10 6 0 11 -7 11 -15 0 -8 5 -15 10 -15 6 0 10 -9 10 -20 0 -11 4 -20 10 -20
5 0 12 -11 16 -25 3 -14 10 -25 16 -25 5 0 6 -4 3 -10 -3 -5 -2 -10 3 -10 6 0
15 -13 21 -30 5 -16 15 -30 20 -30 6 0 11 -9 11 -20 0 -11 5 -20 11 -20 5 0 8
-4 5 -9 -3 -5 1 -14 9 -21 8 -7 15 -17 15 -22 0 -5 11 -25 25 -45 13 -20 22
-40 19 -45 -3 -4 0 -8 6 -8 6 0 15 -10 21 -22 5 -13 17 -34 25 -48 8 -14 26
-43 39 -65 13 -22 29 -52 36 -67 6 -16 15 -28 21 -28 5 0 6 -4 3 -10 -3 -6 -1
-10 5 -10 6 0 8 -5 5 -10 -3 -5 -1 -10 4 -10 6 0 11 -7 11 -15 0 -8 4 -15 9
-15 5 0 12 -11 15 -25 4 -14 11 -25 17 -25 6 0 7 -4 4 -10 -3 -6 -1 -10 4 -10
6 0 11 -6 11 -14 0 -7 6 -19 14 -25 12 -10 17 -8 27 11 7 13 12 26 11 31 -1 4
2 7 8 7 5 0 10 7 10 15 0 8 5 15 11 15 5 0 7 5 4 10 -3 6 -1 10 5 10 6 0 8 5
5 10 -3 5 -1 10 4 10 6 0 11 7 11 15 0 9 6 18 14 21 9 3 12 12 9 21 -4 11 -2
14 5 9 8 -5 12 0 12 12 0 11 7 25 15 32 8 7 15 19 15 26 0 8 5 14 12 14 6 0 9
3 5 6 -3 3 3 15 13 27 11 11 17 23 15 28 -3 4 1 14 9 21 7 8 23 32 35 54 11
21 37 66 56 99 20 33 41 72 47 88 7 15 16 27 20 27 4 0 8 4 8 10 0 9 34 69 79
140 8 14 14 28 13 33 -1 4 3 7 9 7 5 0 7 5 4 10 -3 6 -2 10 3 10 6 0 19 20 31
45 12 25 26 45 31 45 6 0 10 6 9 13 -3 19 12 48 22 41 5 -3 9 -2 8 3 -2 16 13
53 23 53 5 0 6 5 3 10 -3 6 -1 10 5 10 6 0 8 5 5 10 -3 6 -3 10 2 10 4 0 13
10 19 23 21 44 67 122 80 138 8 8 14 23 14 32 0 9 4 17 8 17 9 0 47 71 44 83
-1 4 2 7 7 7 5 0 15 16 22 34 7 19 16 33 21 30 4 -3 8 2 8 10 0 9 5 16 12 16
6 0 8 3 5 6 -3 4 3 18 13 32 11 13 20 30 20 38 0 7 3 14 8 16 4 2 18 24 32 51
13 26 28 47 33 47 4 0 6 4 2 9 -3 5 1 15 8 23 15 15 31 49 29 61 -1 4 2 7 7 7
5 0 11 9 14 20 5 20 2 20 -221 18 l-227 -3 -16 -32 c-9 -18 -22 -40 -29 -48
-7 -8 -10 -15 -6 -15 3 0 -2 -9 -12 -20 -9 -12 -17 -24 -18 -28 0 -8 -31 -61
-61 -109 -13 -18 -23 -38 -23 -43 0 -6 -4 -10 -9 -10 -5 0 -11 -10 -15 -23 -3
-13 -15 -34 -26 -47 -11 -13 -20 -29 -20 -37 0 -7 -6 -13 -13 -13 -8 0 -14 -7
-14 -15 0 -8 4 -15 9 -15 4 0 0 -9 -9 -19 -39 -42 -44 -51 -32 -51 6 0 1 -9
-12 -20 -13 -10 -20 -19 -16 -20 5 0 -1 -12 -12 -26 -12 -15 -21 -33 -21 -40
0 -8 -4 -14 -10 -14 -5 0 -10 -6 -10 -14 0 -7 -7 -19 -15 -26 -8 -7 -13 -16
-10 -20 3 -4 -2 -13 -10 -20 -8 -7 -15 -19 -15 -26 0 -8 -3 -14 -8 -14 -4 0
-18 -21 -32 -47 -13 -27 -36 -67 -52 -89 -15 -23 -24 -44 -21 -48 4 -3 1 -6
-6 -6 -7 0 -9 -4 -6 -10 3 -5 2 -10 -3 -10 -5 0 -13 -10 -19 -22 l-10 -23 -13
25 c-7 14 -20 31 -29 38 -13 11 -13 12 -1 6 11 -6 10 -2 -2 13 -10 11 -18 25
-18 32 0 10 -34 65 -50 81 -3 3 -21 35 -40 72 -19 37 -38 68 -42 68 -5 0 -8 6
-8 14 0 7 -7 19 -15 26 -8 7 -12 16 -9 21 3 5 0 9 -5 9 -6 0 -11 7 -11 16 0 9
-5 12 -12 8 -7 -4 -10 -4 -6 1 4 4 1 20 -8 36 -8 16 -15 32 -16 36 -1 5 -6 13
-12 20 -34 38 -35 41 -23 45 7 2 137 4 290 3 l279 0 30 45 c17 25 31 50 31 57
0 7 6 14 14 17 7 3 13 14 13 25 0 10 7 22 16 25 8 3 12 10 9 16 -3 5 -1 10 4
10 6 0 11 6 11 14 0 8 6 21 13 28 6 7 19 27 27 43 8 17 17 32 20 35 3 3 16 25
29 50 13 25 30 52 38 61 7 9 10 19 6 22 -3 4 -89 7 -190 7 l-183 0 -12 25 c-6
14 -15 25 -20 25 -4 0 -8 3 -7 8 3 18 -15 52 -27 52 -8 0 -13 3 -12 8 4 14
-14 52 -24 52 -6 0 -9 3 -5 6 3 4 -8 27 -25 52 -17 25 -25 42 -17 38 8 -4 4 1
-8 12 -13 11 -23 26 -23 32 0 7 -9 24 -20 40 -11 15 -24 39 -30 54 -5 14 -14
26 -20 26 -6 0 -9 4 -6 9 3 5 -1 14 -9 21 -8 7 -12 16 -9 21 3 5 0 9 -7 9 -7
0 -10 3 -6 6 5 6 0 15 -31 49 -7 8 -10 19 -7 25 3 5 2 10 -3 10 -5 0 -12 9
-15 21 -4 14 -10 18 -18 13 -9 -5 -10 -2 -6 9 3 10 2 17 -3 17 -6 0 -10 6 -10
13 0 8 -9 24 -20 37 -11 12 -17 27 -14 31 3 5 0 9 -7 9 -7 0 -10 3 -6 6 3 3
-3 15 -13 27 -11 11 -17 24 -14 28 2 4 -1 11 -9 16 -7 4 -18 19 -25 33 -6 14
-27 52 -47 85 -19 33 -38 67 -42 75 -3 8 -16 29 -27 45 -12 17 -21 33 -21 37
0 4 -7 15 -15 25 -17 21 -38 64 -36 76 0 5 -7 13 -17 18 -9 6 -15 14 -12 20 4
5 2 9 -4 9 -5 0 -15 16 -22 34 -7 19 -16 33 -20 31 -4 -3 -9 6 -13 18 -3 13
-12 24 -21 24 -8 0 -13 -3 -10 -5z m31 -797 c9 -8 13 -15 9 -15 -3 0 4 -10 15
-22 11 -12 18 -28 15 -36 -2 -7 0 -10 5 -7 5 3 12 -6 16 -20 3 -14 11 -25 16
-25 6 0 7 -7 4 -16 -3 -8 -2 -13 2 -10 5 3 22 -21 38 -52 16 -31 34 -62 39
-68 6 -6 22 -33 35 -60 14 -27 31 -55 38 -62 6 -7 12 -20 12 -28 0 -8 4 -14 9
-14 5 0 11 -8 15 -17 6 -19 30 -63 59 -106 20 -31 13 -35 -65 -32 -32 0 -58
-3 -58 -7 0 -5 -8 -5 -17 -1 -10 5 -41 8 -70 7 -49 -1 -52 0 -62 27 -5 16 -15
29 -21 29 -6 0 -8 5 -5 10 3 6 -1 13 -9 16 -9 3 -13 10 -10 15 3 5 0 9 -6 9
-6 0 -9 4 -6 9 3 5 -1 14 -9 21 -8 7 -12 16 -9 21 3 5 1 9 -4 9 -5 0 -12 8
-16 18 -7 20 -39 76 -55 95 -6 8 -8 17 -4 20 3 4 1 7 -5 7 -7 0 -12 7 -12 15
0 8 -3 15 -7 15 -5 0 -13 11 -20 25 -8 17 -8 25 0 25 6 0 7 3 4 6 -7 7 17 55
43 86 8 10 13 20 10 22 -3 2 4 13 14 25 11 12 16 21 12 21 -4 0 0 7 8 16 9 8
16 22 16 30 0 18 17 18 36 -1z"/>
<path d="M2030 4125 c0 -8 5 -15 12 -15 6 0 9 -3 5 -6 -3 -4 1 -13 9 -21 8 -8
12 -19 9 -24 -4 -5 -2 -9 2 -9 5 0 17 -17 28 -37 11 -21 22 -40 25 -43 4 -3
12 -20 19 -37 8 -18 16 -33 20 -33 3 0 12 -15 20 -32 8 -18 17 -35 20 -38 6
-5 16 -21 58 -99 14 -25 31 -53 38 -61 7 -8 10 -21 7 -29 -3 -8 0 -11 6 -7 7
4 14 -4 18 -19 3 -14 9 -25 13 -25 8 0 36 -62 33 -73 -1 -5 1 -6 6 -3 5 3 15
-10 22 -29 8 -19 17 -35 21 -35 6 0 15 -23 17 -44 0 -5 7 -13 16 -18 9 -5 16
-16 16 -24 0 -8 9 -24 20 -36 11 -12 20 -30 20 -40 0 -10 5 -18 10 -18 9 0 34
-49 30 -59 -1 -2 2 -7 7 -10 27 -20 70 -104 64 -126 -1 -5 1 -7 5 -3 7 8 64
-75 64 -92 0 -6 5 -10 11 -10 5 0 8 -4 4 -9 -3 -5 0 -13 5 -16 9 -6 27 -41 33
-65 0 -3 11 -16 24 -30 13 -14 23 -33 23 -42 0 -10 5 -18 11 -18 5 0 8 -4 5
-9 -4 -5 -2 -11 3 -13 5 -1 11 -10 13 -18 2 -8 12 -23 22 -32 10 -10 16 -18
12 -18 -4 0 2 -13 14 -30 12 -16 18 -30 13 -30 -4 0 -3 -4 3 -8 6 -4 21 -26
32 -48 12 -23 27 -48 34 -56 7 -7 24 -36 38 -63 13 -28 27 -52 30 -55 3 -3 11
-17 19 -32 18 -36 36 -35 51 1 6 16 20 38 31 50 11 12 17 21 13 21 -3 0 -1 7
6 15 7 8 9 15 6 15 -4 0 2 10 13 22 11 11 18 25 15 30 -3 4 -1 8 5 8 5 0 13
10 17 22 3 12 13 28 20 36 8 7 14 20 14 28 0 8 4 14 8 14 5 0 14 16 22 35 8
19 16 35 20 35 3 0 6 9 7 20 1 11 -2 20 -6 20 -5 0 -14 14 -21 30 -7 17 -16
30 -20 30 -8 0 -23 38 -21 53 1 4 -3 7 -7 7 -5 0 -19 23 -32 50 -13 28 -27 50
-32 50 -5 0 -7 4 -4 9 4 5 3 11 -1 13 -10 4 -42 57 -50 81 -3 9 -10 17 -15 17
-5 0 -7 4 -4 9 3 5 -1 14 -9 21 -8 7 -15 19 -15 26 0 8 -9 23 -20 34 -11 11
-20 27 -20 35 0 8 -5 15 -11 15 -5 0 -8 4 -5 9 3 5 -1 14 -9 21 -8 7 -15 19
-15 26 0 8 -4 14 -9 14 -5 0 -12 11 -15 25 -4 14 -11 25 -17 25 -6 0 -7 5 -4
10 3 6 1 10 -4 10 -6 0 -11 7 -11 15 0 8 -5 15 -11 15 -6 0 -9 5 -7 12 2 6 -4
20 -14 30 -10 10 -18 25 -18 33 0 8 -5 15 -11 15 -5 0 -8 4 -5 9 4 5 2 11 -3
13 -5 1 -11 10 -13 18 -2 8 -11 23 -20 34 -10 11 -18 26 -18 33 0 7 -4 13 -9
13 -5 0 -14 12 -21 28 -20 47 -34 72 -43 72 -4 0 -6 4 -2 9 3 5 -1 15 -8 23
-7 7 -20 28 -28 46 -7 17 -17 32 -21 32 -5 0 -8 7 -8 15 0 8 -9 24 -19 34 -11
11 -16 22 -13 26 4 4 -1 13 -12 20 -10 8 -15 19 -10 26 4 7 3 10 -4 5 -6 -3
-14 4 -18 16 -4 13 -9 25 -13 28 -3 3 -19 31 -36 62 -16 32 -34 58 -38 58 -5
0 -6 4 -3 9 11 18 -28 21 -240 21 -184 0 -214 -2 -214 -15z"/>
<path d="M1735 2223 c29 -58 43 -97 39 -105 -3 -4 0 -8 6 -8 6 0 8 -4 5 -10
-3 -5 -1 -10 6 -10 7 0 10 -3 6 -6 -3 -4 0 -19 8 -34 8 -15 11 -30 8 -34 -4
-3 -1 -6 5 -6 7 0 12 -9 12 -21 0 -11 3 -18 8 -16 4 3 8 -7 9 -21 0 -15 6 -28
12 -30 5 -2 8 -9 5 -16 -3 -7 2 -19 11 -26 8 -7 15 -25 15 -41 0 -15 5 -31 11
-34 6 -4 8 -14 5 -22 -3 -8 -2 -12 3 -9 8 5 26 -40 23 -56 -4 -18 30 -6 35 12
3 11 10 20 15 20 5 0 7 4 4 8 -3 5 6 30 19 57 14 27 25 57 25 67 0 10 4 18 10
18 5 0 7 7 4 15 -4 9 0 15 10 15 9 0 16 -7 16 -15 0 -8 9 -30 20 -50 11 -19
20 -37 20 -40 0 -3 0 -11 0 -19 0 -8 7 -22 16 -30 12 -12 12 -16 2 -16 -8 -1
-7 -4 4 -11 10 -5 15 -16 12 -24 -4 -10 0 -15 15 -15 14 0 21 6 21 18 0 10 3
22 8 26 4 4 7 11 8 14 0 4 7 21 14 37 7 17 14 33 15 38 2 4 4 10 5 15 1 4 2
10 1 15 0 4 4 7 10 7 5 0 7 5 4 10 -3 6 -1 10 5 10 6 0 9 4 6 9 -8 12 4 42 14
36 4 -3 7 1 7 8 -1 24 16 77 25 77 5 0 7 3 4 8 -2 4 6 29 18 54 13 26 18 44
12 41 -6 -4 -2 3 8 15 11 12 16 22 11 22 -4 0 -2 7 5 15 7 9 10 18 7 22 -4 3
1 12 11 19 15 11 16 13 1 19 -9 3 -38 5 -65 3 -45 -3 -50 -5 -60 -36 -5 -18
-14 -29 -19 -25 -4 5 -5 3 -1 -4 3 -6 -5 -36 -18 -67 -13 -30 -22 -57 -18 -60
3 -3 0 -6 -6 -6 -7 0 -11 -3 -10 -7 3 -13 -13 -53 -22 -53 -7 0 -16 22 -25 58
-2 8 -7 21 -11 30 -4 9 -8 19 -9 22 0 3 -11 27 -23 54 -12 27 -22 58 -22 69 0
19 -1 19 -20 -3 -11 -12 -17 -27 -14 -31 3 -5 0 -9 -6 -9 -6 0 -9 -4 -5 -9 3
-5 1 -12 -5 -16 -6 -4 -8 -11 -5 -16 4 -5 1 -9 -5 -9 -6 0 -9 -3 -7 -8 3 -4
-3 -25 -14 -46 -10 -21 -17 -41 -15 -45 5 -8 -16 -35 -29 -38 -6 -1 -12 8 -12
20 -2 19 -8 35 -32 87 -4 8 -14 36 -21 62 -8 26 -18 44 -22 42 -4 -3 -8 6 -8
20 0 25 -2 26 -65 26 l-64 0 14 -27z"/>
<path d="M2453 2230 c3 -11 2 -20 -3 -20 -4 0 -4 -18 0 -40 4 -22 4 -40 0 -40
-8 0 -5 -37 6 -64 6 -15 4 -17 -7 -11 -12 8 -12 6 0 -8 7 -9 9 -17 4 -17 -5 0
-7 -21 -3 -50 4 -32 3 -50 -4 -50 -6 0 -6 -4 1 -11 7 -7 8 -21 3 -39 -5 -18
-4 -32 3 -39 8 -8 8 -11 -1 -11 -10 0 -10 -5 -2 -20 6 -11 7 -20 3 -20 -5 0
-7 -18 -5 -40 l4 -40 134 0 c82 0 134 4 135 10 0 6 1 24 1 40 0 17 -1 36 -1
43 -1 10 -20 13 -76 12 -41 -1 -75 3 -75 7 0 5 -4 7 -8 4 -4 -2 -8 18 -9 45 0
27 3 49 6 50 3 0 15 2 26 4 11 2 23 -1 27 -8 5 -8 8 -8 8 -1 0 7 13 10 33 8
22 -3 34 0 34 8 0 7 2 18 3 23 1 6 2 25 1 43 l-1 32 -68 0 -68 0 0 57 1 58 80
-1 c71 -1 81 2 81 17 0 10 -5 15 -10 12 -5 -4 -6 -1 -1 6 4 7 8 26 9 42 l2 29
-134 0 c-129 0 -134 -1 -129 -20z"/>
<path d="M2824 2191 c2 -36 -1 -58 -6 -54 -6 3 -6 -2 0 -13 10 -21 10 -53 -1
-70 -3 -6 -4 -14 0 -18 11 -10 9 -116 -2 -116 -7 0 -6 -3 0 -8 12 -8 13 -81 2
-99 -4 -6 -3 -14 1 -17 10 -6 9 -42 -1 -52 -4 -4 -2 -13 4 -21 14 -16 254 -19
244 -4 -3 6 3 8 14 6 21 -4 95 60 86 75 -3 4 0 10 6 12 12 4 20 78 8 78 -4 0
-5 9 -2 20 3 12 0 20 -6 20 -7 0 -10 4 -7 8 3 5 -3 14 -14 22 -19 13 -16 45 3
33 6 -4 8 0 4 10 -3 10 -3 17 2 17 10 0 24 39 21 55 -2 6 -4 24 -5 41 -4 44
-32 93 -60 104 -14 5 -25 14 -25 19 0 5 -60 10 -134 10 l-134 2 2 -60z m224
-61 c2 -5 8 -8 13 -5 5 4 6 -2 2 -11 -4 -11 -2 -15 4 -11 14 9 3 -44 -13 -60
-17 -17 -124 -17 -125 0 -5 55 -2 84 10 93 17 13 104 9 109 -6z m0 -214 c12
-4 20 -12 17 -17 -4 -5 -3 -9 2 -9 4 0 8 -11 8 -25 0 -14 -6 -25 -13 -25 -7 0
-10 -4 -7 -10 3 -5 -2 -10 -12 -11 -10 0 -37 -2 -60 -3 -24 -1 -43 2 -43 6 0
5 -3 7 -8 4 -10 -6 -9 87 1 95 10 7 86 4 115 -5z"/>
<path d="M3360 2243 c0 -7 -7 -10 -17 -6 -11 4 -14 3 -9 -5 4 -7 1 -12 -8 -12
-9 0 -16 -5 -16 -11 0 -5 -5 -7 -10 -4 -6 4 -10 3 -9 -2 1 -4 -5 -23 -13 -42
-8 -18 -14 -46 -12 -63 3 -21 0 -27 -9 -22 -9 5 -9 4 1 -7 6 -7 12 -21 12 -30
0 -9 7 -20 16 -23 8 -3 12 -10 9 -16 -3 -5 1 -10 9 -10 8 0 19 -7 24 -16 5 -9
11 -16 13 -15 14 2 49 -13 49 -21 0 -5 4 -7 9 -3 5 3 17 -3 27 -12 10 -10 20
-18 23 -17 3 0 12 -6 19 -13 11 -11 11 -13 0 -13 -9 0 -10 -2 -1 -8 8 -5 6
-13 -6 -29 -15 -18 -27 -21 -77 -19 -36 1 -69 9 -86 20 -16 10 -28 14 -29 10
-1 -15 -7 -48 -13 -75 -4 -19 -1 -29 9 -33 8 -3 17 -4 19 -3 1 1 10 -4 19 -11
9 -8 21 -11 26 -8 5 4 12 3 15 -2 8 -13 96 -14 112 -1 11 9 14 8 14 -2 0 -12
2 -12 9 0 5 8 14 10 21 6 9 -5 11 -4 6 3 -4 7 -1 12 8 12 8 0 18 9 21 20 4 11
11 18 16 14 5 -3 8 -2 7 3 -1 4 2 17 8 28 9 18 10 31 5 103 -1 27 -56 86 -89
96 -12 4 -20 12 -16 17 3 5 2 9 -3 8 -22 -4 -73 15 -73 28 0 8 -4 11 -10 8 -6
-4 -10 8 -10 28 0 29 5 37 30 47 17 7 41 9 57 5 67 -17 73 -16 74 7 1 13 2 37
3 54 1 27 -1 30 -21 28 -13 -1 -23 1 -23 5 0 4 -25 9 -55 10 -40 1 -55 -2 -55
-11 0 -9 -3 -9 -10 2 -6 9 -10 11 -10 3z"/>
<path d="M3624 2200 c0 -27 4 -51 8 -51 4 -1 12 -2 17 -3 5 0 13 -4 17 -8 4
-4 12 -4 18 -1 23 15 64 11 68 -5 2 -10 3 -108 3 -219 l0 -203 53 0 c29 0 51
4 48 8 -2 4 -1 14 4 22 5 9 5 19 -2 27 -7 9 -7 17 2 28 7 8 8 15 3 15 -5 0 -9
9 -10 20 -1 11 2 18 6 16 10 -6 8 25 -3 42 -4 7 -2 19 4 27 7 8 8 15 3 15 -5
0 -9 9 -10 20 -1 11 2 18 6 16 9 -6 8 25 -2 41 -5 7 -3 21 3 32 7 13 7 22 0
26 -5 3 -10 11 -10 16 0 6 5 7 11 3 8 -4 8 0 0 15 -9 16 -9 21 1 21 10 0 10 2
0 9 -11 7 -11 9 1 14 8 3 20 0 27 -6 8 -8 11 -8 7 -1 -4 7 9 11 41 10 l47 -1
3 53 3 52 -183 0 -184 0 0 -50z"/>
<path d="M4070 1980 l0 -270 135 0 c83 0 135 4 136 10 1 6 2 16 3 23 1 6 -1
19 -5 28 -5 9 -3 21 3 27 14 14 12 14 -82 16 -36 1 -70 4 -75 8 -6 4 -10 28
-10 55 l1 48 60 1 c88 1 92 2 74 14 -8 5 -10 10 -4 10 9 0 10 25 5 73 -1 4
-32 7 -69 7 l-68 0 2 53 c1 28 2 54 3 57 0 3 35 5 76 4 41 0 76 2 76 5 1 3 2
27 3 54 l2 47 -133 0 -133 0 0 -270z"/>
<path d="M4446 2242 c-7 -12 -9 -59 -3 -94 2 -16 1 -28 -3 -28 -7 0 -7 -21 0
-40 6 -15 4 -79 -2 -102 -3 -16 -4 -28 0 -28 4 0 7 -16 7 -35 0 -19 -3 -35 -7
-35 -5 0 -4 -22 2 -40 1 -3 2 -33 2 -67 l0 -63 48 0 c55 0 59 5 54 78 -2 35 1
52 9 52 8 0 8 3 2 8 -17 13 -17 43 1 57 18 13 58 9 49 -5 -3 -5 1 -15 9 -23 8
-8 12 -17 9 -21 -4 -3 -1 -6 5 -6 7 0 11 -3 10 -7 -2 -10 13 -46 22 -53 3 -3
14 -22 23 -42 17 -37 19 -38 72 -38 50 0 77 11 56 24 -5 3 -21 29 -36 58 -15
29 -35 62 -44 72 -13 15 -13 18 -1 11 8 -4 4 4 -9 18 -21 23 -22 28 -8 41 8 8
17 13 20 10 9 -9 58 64 62 93 2 15 4 29 5 31 3 3 3 41 0 45 -1 1 -4 13 -6 27
-3 14 -9 27 -14 28 -6 2 -10 9 -10 16 0 16 -58 58 -70 51 -6 -3 -10 -2 -10 3
0 13 -236 16 -244 4z m229 -116 c21 -20 19 -78 -2 -96 -11 -9 -39 -15 -73 -15
l-54 0 -1 66 -1 66 58 -3 c35 -2 65 -10 73 -18z"/>
<path d="M4980 2240 c0 -6 -5 -8 -11 -5 -5 4 -18 -2 -28 -14 -10 -11 -21 -18
-25 -14 -3 3 -6 -1 -6 -10 0 -9 -5 -17 -11 -17 -5 0 -7 -4 -4 -10 3 -5 1 -10
-6 -10 -7 0 -9 -3 -6 -7 4 -3 1 -13 -6 -21 -10 -13 -9 -14 2 -7 11 6 12 5 5
-6 -13 -21 -14 -39 -2 -39 6 0 5 -6 -2 -15 -9 -11 -9 -15 -1 -15 7 0 9 -4 6
-10 -3 -5 -1 -10 5 -10 7 0 9 -7 6 -16 -3 -8 -2 -12 4 -9 6 3 10 1 10 -4 0 -6
6 -11 14 -11 8 0 16 -6 19 -14 3 -8 19 -17 36 -21 17 -4 31 -11 31 -16 0 -5 9
-9 19 -9 11 0 23 -5 26 -10 4 -6 12 -7 18 -4 7 4 9 4 5 -1 -4 -4 -3 -14 2 -20
16 -20 -5 -63 -34 -71 -37 -9 -102 1 -131 20 -14 9 -25 12 -25 6 0 -6 -6 -8
-12 -4 -8 5 -7 0 2 -11 8 -10 10 -16 4 -12 -7 4 -11 -9 -12 -38 -1 -25 2 -45
8 -45 16 0 24 -2 50 -13 33 -13 148 -18 156 -6 3 5 10 7 15 4 5 -4 9 -1 9 4 0
6 6 11 13 11 13 0 33 21 55 59 15 26 14 106 -2 135 -6 11 -20 29 -30 40 -10
12 -15 15 -11 7 5 -9 4 -12 -3 -7 -7 4 -12 14 -12 22 0 8 -5 12 -11 9 -5 -4
-18 0 -27 8 -9 9 -30 19 -45 23 -16 3 -31 13 -34 20 -3 8 -9 12 -13 9 -5 -3
-7 7 -6 22 2 16 4 34 5 41 0 7 6 10 11 7 6 -3 10 -2 10 3 0 10 68 11 85 1 6
-3 16 -4 23 -3 6 1 16 2 21 3 4 0 9 23 9 50 1 44 0 49 -18 44 -11 -3 -20 -1
-20 4 0 4 -29 10 -65 11 -42 2 -65 -1 -65 -8z"/>
</g>
</svg>
